<svg xmlns="http://www.w3.org/2000/svg" style="display: none;">
  <symbol id="plyr-airplay">
   <svg class="line" viewBox="0 0 24 24"><path d="M2 9V8C2 5 4 3 7 3H17C20 3 22 5 22 8V16C22 19 20 21 17 21H16"></path><path d="M3.68994 11.71C8.30994 12.3 11.6999 15.7 12.2999 20.32"></path><path d="M2.62 15.0699C6.01 15.4999 8.5 18 8.94 21.39"></path><path d="M1.97998 18.86C3.66998 19.08 4.91998 20.32 5.13998 22.02"></path></svg>
  </symbol>

  <symbol id="plyr-captions-off">
   <svg class="line" viewBox="0 0 24 24" opacity="0.5"><path d="M9 22H15C20 22 22 20 22 15V9C22 4 20 2 15 2H9C4 2 2 4 2 9V15C2 20 4 22 9 22Z"></path><path d="M17.5 17.0801H15.65"></path><path d="M12.97 17.0801H6.5"></path><path d="M17.5 13.3201H11.97"></path><path d="M9.27 13.3201H6.5"></path></svg>
  </symbol>

  <symbol id="plyr-captions-on">
   <svg class="line" viewBox="0 0 24 24"><path d="M9 22H15C20 22 22 20 22 15V9C22 4 20 2 15 2H9C4 2 2 4 2 9V15C2 20 4 22 9 22Z"></path><path d="M17.5 17.0801H15.65"></path><path d="M12.97 17.0801H6.5"></path><path d="M17.5 13.3201H11.97"></path><path d="M9.27 13.3201H6.5"></path></svg>
  </symbol>

  <symbol id="plyr-download">
   <svg class="line" viewBox="0 0 24 24"><path d="M12 22C17.5228 22 22 17.5228 22 12C22 6.47715 17.5228 2 12 2C6.47715 2 2 6.47715 2 12C2 17.5228 6.47715 22 12 22Z"></path><path d="M12 8.5V14.5"></path><path d="M9 12.5L12 15.5L15 12.5"></path></svg>
  </symbol>

  <symbol id="plyr-enter-fullscreen">
   <svg class="line" viewBox="0 0 24 24"><path d="M2 9V6.5C2 4.01 4.01 2 6.5 2H9"></path><path d="M15 2H17.5C19.99 2 22 4.01 22 6.5V9"></path><path d="M22 16V17.5C22 19.99 19.99 22 17.5 22H16"></path><path d="M9 22H6.5C4.01 22 2 19.99 2 17.5V15"></path></svg>
  </symbol>

  <symbol id="plyr-exit-fullscreen">
   <svg class="line" viewBox="0 0 24 24"><path d="M2 9V6.5C2 4.01 4.01 2 6.5 2H9"></path><path d="M15 2H17.5C19.99 2 22 4.01 22 6.5V9"></path><path d="M22 16V17.5C22 19.99 19.99 22 17.5 22H16"></path><path d="M9 22H6.5C4.01 22 2 19.99 2 17.5V15"></path></svg>
  </symbol>

  <symbol id="plyr-fast-forward">
   <svg class="line" viewBox="0 0 24 24"><path d="M13.98 4.46997L12 2"></path><path d="M19.0899 7.79999C20.1999 9.27999 20.8899 11.11 20.8899 13.11C20.8899 18.02 16.9099 22 11.9999 22C7.08988 22 3.10986 18.02 3.10986 13.11C3.10986 8.19999 7.08988 4.21997 11.9999 4.21997C12.6799 4.21997 13.3399 4.31002 13.9799 4.46002"></path><path d="M9.54004 15.92V10.5801L8.04004 12.2501"></path><path d="M14 10.5801C15.1 10.5801 16 11.4801 16 12.5801V13.9301C16 15.0301 15.1 15.9301 14 15.9301C12.9 15.9301 12 15.0301 12 13.9301V12.5801C12 11.4701 12.9 10.5801 14 10.5801Z"></path></svg>
  </symbol>

  <symbol id="plyr-logo-vimeo">
   <path d="M16,3.3 C15.9,4.9 14.8,7 12.7,9.7 C10.5,12.5 8.7,13.9 7.2,13.9 C6.3,13.9 5.5,13 4.8,11.3 C4,8.9 3.4,4 2,4 C1.9,4 1.5,4.3 0.8,4.8 L0,3.8 C0.8,3.1 3.5,0.4 4.7,0.3 C5.9,0.2 6.7,1 7,2.8 C7.3,4.8 7.8,8.9 8.8,8.9 C9.7,8.9 11.3,5.5 11.4,4.9 C11.5,4 11.1,3 9.1,3.8 C9.9,1.2 11.4,-8.8817842e-16 13.6,-8.8817842e-16 C15.3,0.1 16.1,1.2 16,3.3 Z" transform="translate(1 2)"></path>
  </symbol>

  <symbol id="plyr-logo-youtube">
   <path d="M15.8,2.8 C15.6,1.5 15,0.6 13.6,0.4 C11.4,0 8,0 8,0 C8,0 4.6,0 2.4,0.4 C1,0.6 0.3,1.5 0.2,2.8 C0,4.1 0,6 0,6 C0,6 0,7.9 0.2,9.2 C0.4,10.5 1,11.4 2.4,11.6 C4.6,12 8,12 8,12 C8,12 11.4,12 13.6,11.6 C15,11.3 15.6,10.5 15.8,9.2 C16,7.9 16,6 16,6 C16,6 16,4.1 15.8,2.8 Z M6,9 L6,3 L11,6 L6,9 Z" transform="translate(1 3)"></path>
  </symbol>

  <symbol id="plyr-muted">
   <svg class="line" viewBox="0 0 24 24"><path d="M2 10.1595V14.1595C2 16.1595 3 17.1595 5 17.1595H6.43C6.8 17.1595 7.17 17.2695 7.49 17.4595L10.41 19.2895C12.93 20.8695 15 19.7195 15 16.7495V7.56946C15 4.58946 12.93 3.44946 10.41 5.02946L7.49 6.85946C7.17 7.04946 6.8 7.15946 6.43 7.15946H5C3 7.15946 2 8.15946 2 10.1595Z"></path><path d="M22 14.1194L18.04 10.1594" stroke-miterlimit="10"></path><path d="M21.96 10.1995L18 14.1595" stroke-miterlimit="10"></path></svg>
  </symbol>

  <symbol id="plyr-pause">
   <svg class="line" viewBox="0 0 24 24"><path d="M10.65 19.11V4.89C10.65 3.54 10.08 3 8.64 3H5.01C3.57 3 3 3.54 3 4.89V19.11C3 20.46 3.57 21 5.01 21H8.64C10.08 21 10.65 20.46 10.65 19.11Z"></path><path d="M21 19.11V4.89C21 3.54 20.43 3 18.99 3H15.36C13.93 3 13.35 3.54 13.35 4.89V19.11C13.35 20.46 13.92 21 15.36 21H18.99C20.43 21 21 20.46 21 19.11Z"></path></svg>
  </symbol>

  <symbol id="plyr-pip">
   <svg class="line" viewBox="0 0 24 24"><path d="M2 9.98V9C2 4 4 2 9 2H15C20 2 22 4 22 9V15C22 20 20 22 15 22H14"></path><path d="M13 11L18.01 5.97998H14"></path><path d="M18.01 5.97998V9.98998"></path><path d="M11 16.15V18.85C11 21.1 10.1 22 7.85 22H5.15C2.9 22 2 21.1 2 18.85V16.15C2 13.9 2.9 13 5.15 13H7.85C10.1 13 11 13.9 11 16.15Z"></path></svg>
  </symbol>

  <symbol id="plyr-play">
   <svg class="line" viewBox="0 0 24 24"><path d="M4 11.9999V8.43989C4 4.01989 7.13 2.2099 10.96 4.4199L14.05 6.1999L17.14 7.9799C20.97 10.1899 20.97 13.8099 17.14 16.0199L14.05 17.7999L10.96 19.5799C7.13 21.7899 4 19.9799 4 15.5599V11.9999Z" stroke-miterlimit="10"></path></svg>
  </symbol>

  <symbol id="plyr-restart">
   <svg class="line" viewBox="0 0 24 24"><path d="M22 12C22 17.52 17.52 22 12 22C6.48 22 3.11 16.44 3.11 16.44M3.11 16.44H7.63M3.11 16.44V21.44M2 12C2 6.48 6.44 2 12 2C18.67 2 22 7.56 22 7.56M22 7.56V2.56M22 7.56H17.56"></path></svg>
  </symbol>

  <symbol id="plyr-rewind">
   <svg class="line" viewBox="0 0 24 24"><path d="M9.54004 15.92V10.5801L8.04004 12.2501"></path><path d="M10.02 4.46997L12 2"></path><path d="M4.91 7.79999C3.8 9.27999 3.10999 11.11 3.10999 13.11C3.10999 18.02 7.09 22 12 22C16.91 22 20.89 18.02 20.89 13.11C20.89 8.19999 16.91 4.21997 12 4.21997C11.32 4.21997 10.66 4.31002 10.02 4.46002"></path><path d="M14 10.5801C15.1 10.5801 16 11.4801 16 12.5801V13.9301C16 15.0301 15.1 15.9301 14 15.9301C12.9 15.9301 12 15.0301 12 13.9301V12.5801C12 11.4701 12.9 10.5801 14 10.5801Z"></path></svg>
  </symbol>

  <symbol id="plyr-settings">
   <svg class="line" viewBox="0 0 24 24"><path d="M12 15C13.6569 15 15 13.6569 15 12C15 10.3431 13.6569 9 12 9C10.3431 9 9 10.3431 9 12C9 13.6569 10.3431 15 12 15Z" stroke-miterlimit="10"></path><path d="M2 12.8799V11.1199C2 10.0799 2.85 9.21994 3.9 9.21994C5.71 9.21994 6.45 7.93994 5.54 6.36994C5.02 5.46994 5.33 4.29994 6.24 3.77994L7.97 2.78994C8.76 2.31994 9.78 2.59994 10.25 3.38994L10.36 3.57994C11.26 5.14994 12.74 5.14994 13.65 3.57994L13.76 3.38994C14.23 2.59994 15.25 2.31994 16.04 2.78994L17.77 3.77994C18.68 4.29994 18.99 5.46994 18.47 6.36994C17.56 7.93994 18.3 9.21994 20.11 9.21994C21.15 9.21994 22.01 10.0699 22.01 11.1199V12.8799C22.01 13.9199 21.16 14.7799 20.11 14.7799C18.3 14.7799 17.56 16.0599 18.47 17.6299C18.99 18.5399 18.68 19.6999 17.77 20.2199L16.04 21.2099C15.25 21.6799 14.23 21.3999 13.76 20.6099L13.65 20.4199C12.75 18.8499 11.27 18.8499 10.36 20.4199L10.25 20.6099C9.78 21.3999 8.76 21.6799 7.97 21.2099L6.24 20.2199C5.33 19.6999 5.02 18.5299 5.54 17.6299C6.45 16.0599 5.71 14.7799 3.9 14.7799C2.85 14.7799 2 13.9199 2 12.8799Z" stroke-miterlimit="10"></path></svg>
  </symbol>

  <symbol id="plyr-volume">
   <svg class="line" viewBox="0 0 24 24"><path d="M2 10V14C2 16 3 17 5 17H6.43C6.8 17 7.17 17.11 7.49 17.3L10.41 19.13C12.93 20.71 15 19.56 15 16.59V7.41003C15 4.43003 12.93 3.29003 10.41 4.87003L7.49 6.70003C7.17 6.89003 6.8 7.00003 6.43 7.00003H5C3 7.00003 2 8.00003 2 10Z"></path><path d="M18 8C19.78 10.37 19.78 13.63 18 16"></path><path d="M19.83 5.5C22.72 9.35 22.72 14.65 19.83 18.5"></path></svg>
  </symbol>

</svg>