<svg xmlns="http://www.w3.org/2000/svg" style="display: none;">
  <!-- Air Play -->
  <symbol id="plyr-airplay" viewBox="0 0 24 24">
    <path d="M5.333 6c0-.368.299-.667.667-.667h20c.368 0 .667.299.667.667v14.667a.667.667 0 0 1-.667.666h-2.293c-.211 0-.41-.1-.536-.27l-.985-1.333a.667.667 0 0 1 .536-1.063h.611A.667.667 0 0 0 24 18V8.667A.667.667 0 0 0 23.333 8H8.667A.667.667 0 0 0 8 8.667V18c0 .368.298.667.667.667h.627c.547 0 .86.622.536 1.063l-.985 1.333a.67.67 0 0 1-.537.27H6a.667.667 0 0 1-.667-.666z"/><path d="M8.785 25.604a.667.667 0 0 0 .536 1.063H22.68a.667.667 0 0 0 .536-1.063l-6.68-9.039a.667.667 0 0 0-1.072 0z"/>
  </symbol>

  <!-- Captions Off -->
  <symbol id="plyr-captions-off" viewBox="0 0 24 24">
    <path d="M4.666 6.667A.667.667 0 0 0 4 7.334v17.333c0 .368.299.667.667.667h22.667a.667.667 0 0 0 .666-.667V7.334a.667.667 0 0 0-.666-.667zm4 14.666A.667.667 0 0 1 8 20.667v-9.334c0-.368.298-.666.667-.666H14c.368 0 .667.298.667.666v1.334a.667.667 0 0 1-.667.666h-3.2a.133.133 0 0 0-.133.134v5.066c0 .074.06.134.133.134H14c.368 0 .667.298.667.666v1.334a.667.667 0 0 1-.667.666zm9.334 0a.667.667 0 0 1-.667-.666v-9.334c0-.368.299-.666.667-.666h5.333c.369 0 .667.298.667.666v1.334a.667.667 0 0 1-.667.666h-3.2a.133.133 0 0 0-.133.134v5.066c0 .074.06.134.133.134h3.2c.369 0 .667.298.667.666v1.334a.667.667 0 0 1-.667.666z"/>
  </symbol>

  <!-- Captions On -->
  <symbol id="plyr-captions-on" viewBox="0 0 24 24">
    <path d="M8 28c0-.368.298-.666.667-.666h14.666c.369 0 .667.298.667.666v1.334a.667.667 0 0 1-.667.666H8.667A.667.667 0 0 1 8 29.334zM4.666 6.667a.667.667 0 0 0-.667.667v17.333c0 .368.299.667.667.667h22.667a.667.667 0 0 0 .666-.667V7.334a.667.667 0 0 0-.666-.667zm4 14.666A.667.667 0 0 1 8 20.667v-9.334c0-.368.298-.666.667-.666H14c.368 0 .667.298.667.666v1.334a.667.667 0 0 1-.667.666h-3.2a.133.133 0 0 0-.133.134v5.066c0 .074.06.134.133.134H14c.368 0 .667.298.667.666v1.334a.667.667 0 0 1-.667.666zm9.334 0a.667.667 0 0 1-.667-.666v-9.334c0-.368.299-.666.667-.666h5.333c.368 0 .667.298.667.666v1.334a.667.667 0 0 1-.667.666h-3.2a.133.133 0 0 0-.133.134v5.066c0 .074.06.134.133.134h3.2c.368 0 .667.298.667.666v1.334a.667.667 0 0 1-.667.666z"/>
  </symbol>

  <!-- Download -->
  <symbol id="plyr-download" viewBox="0 0 24 24">
    <path d="M14.223 13.787a.133.133 0 0 0 .227-.095V6c0-.369.299-.667.667-.667h1.733c.368 0 .667.298.667.667v7.692c0 .118.143.178.227.094l2.2-2.2c.26-.26.682-.26.942 0l1.226 1.227c.26.26.26.682 0 .942l-5.657 5.657a.667.667 0 0 1-.943 0l-5.657-5.656a.667.667 0 0 1 0-.943l1.225-1.226c.26-.26.683-.26.943 0zM6 20.267a.667.667 0 0 0-.667.667V26c0 .368.299.666.667.666h20a.667.667 0 0 0 .667-.666v-5.066a.667.667 0 0 0-.667-.667h-1.733a.667.667 0 0 0-.667.667v2a.667.667 0 0 1-.667.666H9.066a.667.667 0 0 1-.666-.667v-2a.667.667 0 0 0-.667-.666z"/>
  </symbol>

  <!-- Enter Fullscreen -->
  <symbol id="plyr-enter-fullscreen" viewBox="0 0 24 24">
    <path d="M25.33 7.265a.667.667 0 0 0-.663-.598h-5.334a.667.667 0 0 0-.666.666v2c0 .369.298.667.666.667h2.534c.073 0 .133.06.133.133v2.534c0 .368.299.666.667.666h2a.667.667 0 0 0 .666-.666V7.333zM22 21.867c0 .073-.06.133-.133.133h-2.534a.667.667 0 0 0-.666.667v2c0 .368.298.666.666.666h5.334a.667.667 0 0 0 .666-.666v-5.334a.667.667 0 0 0-.666-.666h-2a.667.667 0 0 0-.667.666zM12.667 22h-2.534a.133.133 0 0 1-.133-.133v-2.534a.667.667 0 0 0-.667-.666h-2a.667.667 0 0 0-.666.666v5.334c0 .368.298.666.666.666h5.334a.667.667 0 0 0 .666-.666v-2a.667.667 0 0 0-.666-.667M10 12.667v-2.534c0-.073.06-.133.133-.133h2.534a.667.667 0 0 0 .666-.667v-2a.667.667 0 0 0-.666-.666H7.333a.667.667 0 0 0-.666.666v5.334c0 .368.298.666.666.666h2a.667.667 0 0 0 .667-.666"/>
  </symbol>

  <!-- Exit Fullscreen -->
  <symbol id="plyr-exit-fullscreen" viewBox="0 0 24 24">
    <path d="M19.333 13.333a.667.667 0 0 1-.666-.666V7.333c0-.368.298-.666.666-.666h2c.369 0 .667.298.667.666v2.534c0 .073.06.133.133.133h2.534c.368 0 .666.299.666.667v2a.667.667 0 0 1-.666.666zm-6 6a.667.667 0 0 0-.666-.666H7.333a.667.667 0 0 0-.666.666v2c0 .369.298.667.666.667h2.534c.073 0 .133.06.133.133v2.534c0 .368.299.666.667.666h2a.667.667 0 0 0 .666-.666zm5.334 5.334c0 .368.298.666.666.666h2a.667.667 0 0 0 .667-.666v-2.534c0-.073.06-.133.133-.133h2.534a.667.667 0 0 0 .666-.667v-2a.667.667 0 0 0-.666-.666h-5.334a.667.667 0 0 0-.666.666zm-8-11.334h2a.667.667 0 0 0 .666-.666V7.333a.667.667 0 0 0-.666-.666h-2a.667.667 0 0 0-.667.666v2.534c0 .073-.06.133-.133.133H7.333a.667.667 0 0 0-.666.667v2c0 .368.298.666.666.666z"/>
  </symbol>

  <!-- Fast Forward -->
  <symbol id="plyr-fast-forward" viewBox="0 0 24 24">
    <path d="M15.333 10.345c0 .547.623.862 1.063.536l4.527-3.345a.667.667 0 0 0 0-1.072l-4.527-3.345a.667.667 0 0 0-1.063.536v1.572c0 .07-.055.129-.126.134-5.89.407-10.54 5.313-10.54 11.306C4.667 22.926 9.74 28 16 28c6.035 0 10.969-4.717 11.314-10.666a.64.64 0 0 0-.647-.667h-2c-.369 0-.664.3-.694.667a8 8 0 1 1-8.784-8.627.132.132 0 0 1 .144.132z"/><path d="M17.088 19.679q.551.36 1.312.36.765 0 1.313-.357.55-.36.85-1.043.297-.681.298-1.642.003-.954-.296-1.625-.299-.67-.852-1.02Q19.163 14 18.4 14q-.761 0-1.312.352-.549.35-.847 1.02-.295.668-.298 1.625t.295 1.64q.3.678.85 1.042m2.048-1.253q-.281.463-.736.463a.78.78 0 0 1-.53-.204q-.231-.208-.359-.628-.125-.42-.122-1.06.003-.943.281-1.397.28-.458.73-.458.304 0 .532.202.227.201.355.613.128.41.128 1.04.003.963-.279 1.43m-5.361 1.471c.073 0 .133-.06.133-.134v-5.551a.133.133 0 0 0-.133-.133h-1.133a.13.13 0 0 0-.07.02l-1.34.832a.13.13 0 0 0-.063.114v.904c0 .104.114.168.203.114l1.092-.668a.027.027 0 0 1 .04.023v4.345c0 .074.06.134.134.134z"/>
  </symbol>

  <!-- Vimeo -->
  <symbol id="plyr-logo-vimeo" viewBox="0 0 24 24">
    <path d=""/>
  </symbol>

  <!-- YouTube -->
  <symbol id="plyr-logo-youtube" viewBox="0 0 24 24">
    <path d=""/>
  </symbol>

  <!-- Muted -->
  <symbol id="plyr-muted" viewBox="0 0 24 24">
    <path d="M17.51 24.66a.667.667 0 0 1-1.064.536l-6.998-5.17a.13.13 0 0 0-.079-.027H4.667A.667.667 0 0 1 4 19.333v-6.667c0-.368.298-.667.667-.667H9.37q.044 0 .08-.026l6.995-5.17a.667.667 0 0 1 1.063.537zm11.352-11.018a.667.667 0 0 0 0-.943l-.943-.942a.667.667 0 0 0-.942 0l-2.264 2.263a.134.134 0 0 1-.188 0l-2.263-2.263a.667.667 0 0 0-.943 0l-.943.943a.667.667 0 0 0 0 .942l2.263 2.263a.133.133 0 0 1 0 .189l-2.262 2.262a.667.667 0 0 0 0 .943l.943.943c.26.26.682.26.942 0l2.263-2.262a.133.133 0 0 1 .188 0l2.263 2.262c.26.26.683.26.943 0l.943-.943a.667.667 0 0 0 0-.943l-2.263-2.262a.133.133 0 0 1 0-.189z"/>
  </symbol>

  <!-- Pause -->
  <symbol id="plyr-pause" viewBox="0 0 24 24">
    <path d="M8.667 6.667A.667.667 0 0 0 8 7.333v17.334c0 .368.298.666.667.666h4a.667.667 0 0 0 .666-.666V7.333a.667.667 0 0 0-.666-.666zm10.666 0a.667.667 0 0 0-.666.666v17.334c0 .368.298.666.666.666h4a.667.667 0 0 0 .667-.666V7.333a.667.667 0 0 0-.667-.666z"/>
  </symbol>

  <!-- PIP -->
  <symbol id="plyr-pip" viewBox="0 0 24 24">
    <path d="M16 15.333a.667.667 0 0 0-.667.667v4c0 .368.299.667.667.667h5.333A.667.667 0 0 0 22 20v-4a.667.667 0 0 0-.667-.667z"/><path d="M5.333 7.333c0-.368.299-.666.667-.666h20c.368 0 .667.298.667.666v17.334a.667.667 0 0 1-.667.666H6a.667.667 0 0 1-.667-.666zM8 10c0-.368.298-.667.667-.667h14.666c.369 0 .667.299.667.667v12a.667.667 0 0 1-.667.667H8.667A.667.667 0 0 1 8 22z" fill-rule="evenodd"/>
  </symbol>

  <!-- Play -->
  <symbol id="plyr-play" viewBox="0 0 24 24">
    <path d="M10.667 6.655a.667.667 0 0 1 1.063-.536l12.647 9.344c.36.267.36.806 0 1.073L11.73 25.88a.667.667 0 0 1-1.063-.536z"/>
  </symbol>

  <!-- Restart -->
  <symbol id="plyr-restart" viewBox="0 0 24 24">
    <path d="M15.6038 12.2147C16.0439 12.5399 16.6667 12.2257 16.6667 11.6786V10.1789C16.6667 10.1001 16.7351 10.0384 16.8134 10.0479C20.1116 10.4494 22.6667 13.2593 22.6667 16.6659C22.6667 20.3481 19.6817 23.3332 15.9995 23.3332C12.542 23.3332 9.69927 20.7014 9.36509 17.332C9.32875 16.9655 9.03371 16.6662 8.66548 16.6662L6.66655 16.6666C6.29841 16.6666 5.99769 16.966 6.02187 17.3334C6.36494 22.5454 10.7012 26.6667 16 26.6667C21.5228 26.6667 26 22.1895 26 16.6667C26 11.4103 21.9444 7.10112 16.7916 6.69757C16.7216 6.69209 16.6667 6.63396 16.6667 6.56372V4.98824C16.6667 4.44106 16.0439 4.12689 15.6038 4.45206L11.0765 7.79738C10.7159 8.06387 10.7159 8.60326 11.0766 8.86973L15.6038 12.2147Z"/>
  </symbol>

  <!-- Rewind -->
  <symbol id="plyr-rewind" viewBox="0 0 24 24">
    <path d="M16.667 10.345a.667.667 0 0 1-1.063.536l-4.527-3.345a.667.667 0 0 1 0-1.072l4.527-3.345a.667.667 0 0 1 1.063.536v1.572c0 .07.055.129.126.134 5.89.407 10.54 5.313 10.54 11.306C27.333 22.926 22.26 28 16 28 9.965 28 5.031 23.283 4.686 17.334a.64.64 0 0 1 .647-.667h2c.369 0 .664.3.694.667a8 8 0 1 0 8.784-8.627.132.132 0 0 0-.144.132z"/><path d="M17.088 19.679q.551.36 1.312.36.765 0 1.313-.357.55-.36.85-1.043.297-.681.298-1.642.003-.954-.296-1.625-.299-.67-.852-1.02Q19.163 14 18.4 14q-.761 0-1.312.352-.549.35-.847 1.02-.295.668-.298 1.625t.295 1.64q.3.678.85 1.042m2.048-1.253q-.281.463-.736.463a.78.78 0 0 1-.53-.204q-.231-.208-.359-.628-.125-.42-.122-1.06.003-.943.281-1.397.28-.458.73-.458.304 0 .532.202.227.201.355.613.128.41.128 1.04.003.963-.279 1.43m-5.361 1.471c.073 0 .133-.06.133-.134v-5.551a.133.133 0 0 0-.133-.133h-1.133a.13.13 0 0 0-.07.02l-1.34.832a.13.13 0 0 0-.063.114v.904c0 .104.114.168.203.114l1.092-.668a.027.027 0 0 1 .04.023v4.345c0 .074.06.134.134.134z"/>
  </symbol>

  <!-- Settings -->
  <symbol id="plyr-settings" viewBox="0 0 24 24">
    <path d="M13.572 5.333c-.33 0-.61.24-.659.566l-.507 3.32a.13.13 0 0 1-.068.098q-.15.08-.294.17a.14.14 0 0 1-.119.01l-3.13-1.22a.67.67 0 0 0-.819.288L5.55 12.769a.67.67 0 0 0 .16.853l2.624 2.1a.14.14 0 0 1 .05.109 8 8 0 0 0 0 .337.14.14 0 0 1-.05.108L5.71 18.379a.67.67 0 0 0-.16.853l2.427 4.204a.67.67 0 0 0 .82.288l3.129-1.221a.14.14 0 0 1 .119.01q.144.088.293.17c.037.02.062.056.068.097l.507 3.32c.05.326.33.566.66.566h4.853c.33 0 .61-.24.66-.566l.507-3.319a.14.14 0 0 1 .069-.098q.15-.08.294-.17a.14.14 0 0 1 .12-.01l3.127 1.22a.67.67 0 0 0 .82-.287l2.427-4.204a.67.67 0 0 0-.16-.854l-2.622-2.1a.14.14 0 0 1-.05-.108 7 7 0 0 0 0-.338.14.14 0 0 1 .05-.109l2.622-2.099a.67.67 0 0 0 .161-.854l-2.427-4.204a.67.67 0 0 0-.82-.287l-3.128 1.22a.14.14 0 0 1-.12-.011 8 8 0 0 0-.294-.171.14.14 0 0 1-.069-.098L19.085 5.9a.67.67 0 0 0-.659-.566zM16 20.285a4.286 4.286 0 1 0 0-8.572 4.286 4.286 0 0 0 0 8.572" fill-rule="evenodd"/>
  </symbol>

  <!-- Volume -->
  <symbol id="plyr-volume" viewBox="0 0 24 24">
    <path d="M17.51 24.66a.667.667 0 0 1-1.064.536l-6.998-5.17a.13.13 0 0 0-.079-.027H4.667A.667.667 0 0 1 4 19.332v-6.666c0-.368.298-.667.667-.667H9.37q.044 0 .08-.026l6.995-5.17a.667.667 0 0 1 1.063.537zm5.332-11.993a.667.667 0 0 0-.666-.667h-1.334a.667.667 0 0 0-.666.667v6.666c0 .369.298.667.666.667h1.334a.667.667 0 0 0 .666-.667z"/>
  </symbol>
</svg>