<svg xmlns="http://www.w3.org/2000/svg" style="display: none;">
  <symbol id="plyr-airplay">
   <svg xmlns="http://www.w3.org/2000/svg" height="36" viewBox="0 0 36 36" width="36"><g/><path d="M7 24v3h3c0-1.66-1.34-3-3-3m0-4v2c2.76 0 5 2.24 5 5h2c0-3.87-3.13-7-7-7m18-7H11v1.63c3.96 1.28 7.09 4.41 8.37 8.37H25zM7 16v2a9 9 0 0 1 9 9h2c0-6.08-4.93-11-11-11m20-7H9c-1.1 0-2 .9-2 2v3h2v-3h18v14h-7v2h7c1.1 0 2-.9 2-2V11c0-1.1-.9-2-2-2"/></svg>
  </symbol>

  <symbol id="plyr-captions-off">
   <svg viewBox="0 0 24 24" opacity="0.5" fill="none" xmlns="http://www.w3.org/2000/svg"><g stroke-width="0"/><g stroke-linecap="round" stroke-linejoin="round"/><path fill-rule="evenodd" clip-rule="evenodd" d="M2 12c0-3.771 0-5.657 1.172-6.828S6.229 4 10 4h4c3.771 0 5.657 0 6.828 1.172S22 8.229 22 12s0 5.657-1.172 6.828S17.771 20 14 20h-4c-3.771 0-5.657 0-6.828-1.172S2 15.771 2 12m4 3.25a.75.75 0 0 0 0 1.5h4a.75.75 0 0 0 0-1.5zM7.75 13a.75.75 0 0 0-.75-.75H6a.75.75 0 0 0 0 1.5h1a.75.75 0 0 0 .75-.75m3.75-.75a.75.75 0 0 1 0 1.5h-2a.75.75 0 0 1 0-1.5zm7.25.75a.75.75 0 0 0-.75-.75h-4a.75.75 0 0 0 0 1.5h4a.75.75 0 0 0 .75-.75m-6.25 2.25a.75.75 0 0 0 0 1.5H14a.75.75 0 0 0 0-1.5zm3.25.75a.75.75 0 0 1 .75-.75H18a.75.75 0 0 1 0 1.5h-1.5a.75.75 0 0 1-.75-.75" fill="#f0f6fc"/></svg>
  </symbol>

  <symbol id="plyr-captions-on">
   <svg viewBox="0 0 24 24" fill="none" xmlns="http://www.w3.org/2000/svg"><g stroke-width="0"/><g stroke-linecap="round" stroke-linejoin="round"/><path fill-rule="evenodd" clip-rule="evenodd" d="M2 12c0-3.771 0-5.657 1.172-6.828S6.229 4 10 4h4c3.771 0 5.657 0 6.828 1.172S22 8.229 22 12s0 5.657-1.172 6.828S17.771 20 14 20h-4c-3.771 0-5.657 0-6.828-1.172S2 15.771 2 12m4 3.25a.75.75 0 0 0 0 1.5h4a.75.75 0 0 0 0-1.5zM7.75 13a.75.75 0 0 0-.75-.75H6a.75.75 0 0 0 0 1.5h1a.75.75 0 0 0 .75-.75m3.75-.75a.75.75 0 0 1 0 1.5h-2a.75.75 0 0 1 0-1.5zm7.25.75a.75.75 0 0 0-.75-.75h-4a.75.75 0 0 0 0 1.5h4a.75.75 0 0 0 .75-.75m-6.25 2.25a.75.75 0 0 0 0 1.5H14a.75.75 0 0 0 0-1.5zm3.25.75a.75.75 0 0 1 .75-.75H18a.75.75 0 0 1 0 1.5h-1.5a.75.75 0 0 1-.75-.75" fill="#f0f6fc"/></svg>
  </symbol>

  <symbol id="plyr-download">
   <svg viewBox="0 0 24 24" fill="none" xmlns="http://www.w3.org/2000/svg"><g stroke-width="0"/><g stroke-linecap="round" stroke-linejoin="round"/><g fill="#f0f6fc"><path fill-rule="evenodd" clip-rule="evenodd" d="M12 1.25a.75.75 0 0 0-.75.75v10.973l-1.68-1.961a.75.75 0 1 0-1.14.976l3 3.5a.75.75 0 0 0 1.14 0l3-3.5a.75.75 0 1 0-1.14-.976l-1.68 1.96V2a.75.75 0 0 0-.75-.75"/><path d="M14.25 9v.378a2.249 2.249 0 0 1 2.458 3.586l-3 3.5a2.25 2.25 0 0 1-3.416 0l-3-3.5A2.25 2.25 0 0 1 9.75 9.378V9H8c-2.828 0-4.243 0-5.121.879C2 10.757 2 12.172 2 15v1c0 2.828 0 4.243.879 5.121C3.757 22 5.172 22 8 22h8c2.828 0 4.243 0 5.121-.879C22 20.243 22 18.828 22 16v-1c0-2.828 0-4.243-.879-5.121C20.243 9 18.828 9 16 9z"/></g></svg>
  </symbol>

  <symbol id="plyr-enter-fullscreen">
   <svg viewBox="0 0 24 24" fill="none" xmlns="http://www.w3.org/2000/svg"><g stroke-width="0"/><g stroke-linecap="round" stroke-linejoin="round"/><path d="M16.143 1.25a.75.75 0 1 0 0 1.5h4.046l-5.72 5.72a.75.75 0 0 0 1.061 1.06l5.72-5.72v4.047a.75.75 0 0 0 1.5 0V2a.75.75 0 0 0-.75-.75zm-8.286 21.5a.75.75 0 0 0 0-1.5H3.811l5.72-5.72a.75.75 0 1 0-1.061-1.06l-5.72 5.72v-4.047a.75.75 0 1 0-1.5 0V22c0 .414.336.75.75.75z" fill="#f0f6fc"/></svg>
  </symbol>

  <symbol id="plyr-exit-fullscreen">
   <svg xmlns="http://www.w3.org/2000/svg" width="20" height="20" viewBox="0 0 14 14" fill="none" display="block"><path fill-rule="evenodd" clip-rule="evenodd" d="M3 0h2v5H0V3h3zm2 14H3v-3H0V9h5zm6-3h3V9H9v5h2zm3-8v2H9V0h2v3z" fill="#FFF" fill-opacity=".87"/></svg>
  </symbol>

  <symbol id="plyr-fast-forward">
   <svg viewBox="0 0 24 24" fill="none" xmlns="http://www.w3.org/2000/svg"><g stroke-width="0"/><g stroke-linecap="round" stroke-linejoin="round"/><g fill-rule="evenodd" clip-rule="evenodd" fill="#f0f6fc"><path d="M10.325 7.824a.75.75 0 0 1 .425.676v7a.75.75 0 0 1-1.5 0v-5.44l-1.281 1.026a.75.75 0 0 1-.937-1.172l2.5-2a.75.75 0 0 1 .793-.09M14.25 9.25a1 1 0 0 0-1 1v3.5a1 1 0 1 0 2 0v-3.5a1 1 0 0 0-1-1m-2.5 1a2.5 2.5 0 0 1 5 0v3.5a2.5 2.5 0 0 1-5 0z"/><path d="M12.676 1.675A.75.75 0 0 0 12 1.25q-1.104.002-2.15.215C4.945 2.461 1.25 6.798 1.25 12c0 5.937 4.813 10.75 10.75 10.75S22.75 17.937 22.75 12c0-4.41-2.655-8.197-6.45-9.855a.75.75 0 0 0-.6 1.374A9.25 9.25 0 1 1 2.75 12a9.255 9.255 0 0 1 6.5-8.834V4.5a.75.75 0 0 0 1.336.469l2-2.5a.75.75 0 0 0 .09-.794"/></g></svg>
  </symbol>

  <symbol id="plyr-logo-vimeo">
   <path d="M16,3.3 C15.9,4.9 14.8,7 12.7,9.7 C10.5,12.5 8.7,13.9 7.2,13.9 C6.3,13.9 5.5,13 4.8,11.3 C4,8.9 3.4,4 2,4 C1.9,4 1.5,4.3 0.8,4.8 L0,3.8 C0.8,3.1 3.5,0.4 4.7,0.3 C5.9,0.2 6.7,1 7,2.8 C7.3,4.8 7.8,8.9 8.8,8.9 C9.7,8.9 11.3,5.5 11.4,4.9 C11.5,4 11.1,3 9.1,3.8 C9.9,1.2 11.4,-8.8817842e-16 13.6,-8.8817842e-16 C15.3,0.1 16.1,1.2 16,3.3 Z" transform="translate(1 2)"></path>
  </symbol>

  <symbol id="plyr-logo-youtube">
   <path d="M15.8,2.8 C15.6,1.5 15,0.6 13.6,0.4 C11.4,0 8,0 8,0 C8,0 4.6,0 2.4,0.4 C1,0.6 0.3,1.5 0.2,2.8 C0,4.1 0,6 0,6 C0,6 0,7.9 0.2,9.2 C0.4,10.5 1,11.4 2.4,11.6 C4.6,12 8,12 8,12 C8,12 11.4,12 13.6,11.6 C15,11.3 15.6,10.5 15.8,9.2 C16,7.9 16,6 16,6 C16,6 16,4.1 15.8,2.8 Z M6,9 L6,3 L11,6 L6,9 Z" transform="translate(1 3)"></path>
  </symbol>

  <symbol id="plyr-muted">
   <svg xmlns="http://www.w3.org/2000/svg" width="20" height="20" viewBox="0 0 22 22" fill="none" display="block"><path d="M16.5 11a5.49 5.49 0 0 0-3.056-4.92v2.702l3 3A5.5 5.5 0 0 0 16.5 11" fill="#FFF" fill-opacity=".87"/><path d="M19.555 11c0 1.149-.25 2.23-.66 3.227l1.852 1.851A10.94 10.94 0 0 0 21.999 11C22 5.77 18.34 1.393 13.444.281v2.524c3.532 1.051 6.11 4.32 6.11 8.195zM11 1.222 8.444 3.777l2.554 2.554V1.222zM1.558 0-.001 1.558l5.775 5.775H0v7.334h4.89l6.11 6.11v-8.219l5.2 5.2a8.6 8.6 0 0 1-2.755 1.443v2.524a10.96 10.96 0 0 0 4.504-2.212L20.44 22l1.558-1.558-11-11z" fill="#FFF" fill-opacity=".87"/></svg>
  </symbol>

  <symbol id="plyr-pause">
   <svg xmlns="http://www.w3.org/2000/svg" width="15" height="20" viewBox="0 0 15 20" fill="none"><path fill="#FFF" fill-opacity=".87" d="M0 0h5v20H0zm10 0h5v20h-5z"/></svg>
  </symbol>

  <symbol id="plyr-pip">
   <svg viewBox="0 0 24 24" fill="none" xmlns="http://www.w3.org/2000/svg"><g stroke-width="0"/><g stroke-linecap="round" stroke-linejoin="round"/><path fill-rule="evenodd" clip-rule="evenodd" d="M2.955 5.061C2 6.375 2 8.251 2 12s0 5.625.955 6.939a5 5 0 0 0 1.106 1.106C5.375 21 7.251 21 11 21h2c3.75 0 5.625 0 6.939-.955a5 5 0 0 0 1.106-1.106C22 17.625 22 15.749 22 12s0-5.625-.955-6.939a5 5 0 0 0-1.106-1.106C18.625 3 16.749 3 13 3h-2c-3.75 0-5.625 0-6.939.955A5 5 0 0 0 2.955 5.06m8.219 7.38C11 12.868 11 13.412 11 14.5s0 1.63.174 2.06a2.3 2.3 0 0 0 1.237 1.262c.42.178.953.178 2.018.178h1.142c1.065 0 1.598 0 2.018-.178a2.3 2.3 0 0 0 1.237-1.262c.174-.43.174-.973.174-2.06s0-1.63-.174-2.06a2.3 2.3 0 0 0-1.237-1.262C17.169 11 16.636 11 15.571 11H14.43c-1.065 0-1.598 0-2.018.178a2.3 2.3 0 0 0-1.237 1.262" fill="#f0f6fc"/></svg>
  </symbol>

  <symbol id="plyr-play">
   <svg xmlns="http://www.w3.org/2000/svg" width="20" height="20" viewBox="0 0 30 39" fill="none" display="block"><path d="M.75.25v38.03l28.523-19.015z" fill="#FFF" fill-opacity=".87"/></svg>
  </symbol>

  <symbol id="plyr-restart">
   <svg viewBox="0 0 24 24" fill="none" xmlns="http://www.w3.org/2000/svg"><g stroke-width="0"/><g stroke-linecap="round" stroke-linejoin="round"/><path d="M18.258 3.508a.75.75 0 0 1 .463.693v4.243a.75.75 0 0 1-.75.75h-4.243a.75.75 0 0 1-.53-1.28L14.8 6.31a7.25 7.25 0 1 0 4.393 5.783.75.75 0 0 1 1.488-.187A8.75 8.75 0 1 1 15.93 5.18l1.51-1.51a.75.75 0 0 1 .817-.162" fill="#f0f6fc"/></svg>
  </symbol>

  <symbol id="plyr-rewind">
   <svg viewBox="0 0 24 24" fill="none" xmlns="http://www.w3.org/2000/svg"><g id="SVGRepo_bgCarrier" stroke-width="0"></g><g id="SVGRepo_tracerCarrier" stroke-linecap="round" stroke-linejoin="round"></g><g id="SVGRepo_iconCarrier"> <path fill-rule="evenodd" clip-rule="evenodd" d="M10.3249 7.82403C10.5848 7.94892 10.75 8.2117 10.75 8.50001V15.5C10.75 15.9142 10.4142 16.25 10 16.25C9.58581 16.25 9.25003 15.9142 9.25003 15.5V10.0605L7.96855 11.0857C7.6451 11.3444 7.17313 11.292 6.91438 10.9685C6.65562 10.6451 6.70806 10.1731 7.03151 9.91436L9.53151 7.91436C9.75663 7.73425 10.0651 7.69914 10.3249 7.82403ZM14.25 9.25001C13.6977 9.25001 13.25 9.69772 13.25 10.25V13.75C13.25 14.3023 13.6977 14.75 14.25 14.75C14.8023 14.75 15.25 14.3023 15.25 13.75V10.25C15.25 9.69772 14.8023 9.25001 14.25 9.25001ZM11.75 10.25C11.75 8.8693 12.8693 7.75001 14.25 7.75001C15.6307 7.75001 16.75 8.8693 16.75 10.25V13.75C16.75 15.1307 15.6307 16.25 14.25 16.25C12.8693 16.25 11.75 15.1307 11.75 13.75V10.25Z" fill="#f0f6fc"></path> <path fill-rule="evenodd" clip-rule="evenodd" d="M11.324 1.67511C11.4489 1.41526 11.7117 1.25 12 1.25C12.7353 1.25 13.4541 1.32394 14.1492 1.46503C19.0563 2.46112 22.75 6.79837 22.75 12C22.75 17.9371 17.9371 22.75 12 22.75C6.06294 22.75 1.25 17.9371 1.25 12C1.25 7.59065 3.90459 3.80298 7.69972 2.14482C8.07929 1.97898 8.52143 2.15224 8.68726 2.53181C8.8531 2.91137 8.67984 3.35351 8.30028 3.51935C5.03179 4.94742 2.75 8.20808 2.75 12C2.75 17.1086 6.89137 21.25 12 21.25C17.1086 21.25 21.25 17.1086 21.25 12C21.25 7.84953 18.5158 4.33622 14.75 3.16544V4.5C14.75 4.81852 14.5488 5.10229 14.2483 5.20772C13.9477 5.31315 13.6133 5.21724 13.4143 4.96852L11.4143 2.46852C11.2342 2.24339 11.1991 1.93496 11.324 1.67511Z" fill="#f0f6fc"></path> </g></svg>
  </symbol>

  <symbol id="plyr-settings">
   <svg xmlns="http://www.w3.org/2000/svg" width="20" height="20" viewBox="0 0 31 32" fill="none" display="block"><path fill-rule="evenodd" clip-rule="evenodd" d="M27.457 15.815c0 .538-.046 1.043-.108 1.55l3.283 2.607a.806.806 0 0 1 .187 1.012l-3.113 5.47c-.186.347-.59.49-.949.347l-3.875-1.58c-.809.616-1.68 1.153-2.63 1.548l-.591 4.19a.763.763 0 0 1-.763.663h-6.224a.763.763 0 0 1-.763-.664l-.591-4.189a11.3 11.3 0 0 1-2.63-1.549l-3.875 1.581a.776.776 0 0 1-.95-.348L.753 20.984a.806.806 0 0 1 .187-1.012l3.283-2.608a13 13 0 0 1-.109-1.549c0-.521.047-1.043.11-1.549L.94 11.658a.79.79 0 0 1-.187-1.012l3.112-5.469c.187-.348.592-.49.95-.348L8.69 6.41c.809-.616 1.68-1.154 2.63-1.549l.59-4.189a.763.763 0 0 1 .763-.664h6.224c.39 0 .716.285.763.664l.591 4.189c.95.395 1.821.917 2.63 1.55l3.875-1.582a.776.776 0 0 1 .95.348l3.112 5.47a.806.806 0 0 1-.187 1.011l-3.283 2.608c.062.506.108 1.012.108 1.55zm-17.118 0c0 3.051 2.443 5.533 5.447 5.533s5.446-2.482 5.446-5.532c0-3.051-2.443-5.533-5.446-5.533-3.004 0-5.447 2.482-5.447 5.533z" fill="#FFF" fill-opacity=".87"/></svg>
  </symbol>

  <symbol id="plyr-volume">
   <svg xmlns="http://www.w3.org/2000/svg" width="20" height="20" viewBox="0 0 23 22" fill="none" display="block"><path d="M17 11c0-2.214-1.246-4.127-3.055-5.049v10.104A5.67 5.67 0 0 0 17 11M.5 7.237v7.526h4.889l6.111 6.271V.966L5.389 7.237z" fill="#FFF" fill-opacity=".87"/><path d="M13.945 0v2.59c3.532 1.079 6.11 4.434 6.11 8.41s-2.578 7.331-6.11 8.41V22c4.895-1.141 8.555-5.625 8.555-11s-3.66-9.859-8.555-11" fill="#FFF" fill-opacity=".87"/></svg>
  </symbol>

</svg>